/* XPM */
static char *_009d897bf334bcba11a1b7237b34887gF8gAPysPUx5UyJU[] = {
/* columns rows colors chars-per-pixel */
"64 64 125 2 ",
"   c None",
".  c #2D2D2D",
"X  c #313131",
"o  c #3C3C3C",
"O  c #43403E",
"+  c #5A4E3F",
"@  c #454444",
"#  c #484541",
"$  c #4C4945",
"%  c #4C4C4C",
"&  c #544C44",
"*  c #594E43",
"=  c #544F4B",
"-  c #5F5343",
";  c #55534D",
":  c #5C544B",
">  c #5D5B4D",
",  c #545454",
"<  c #5A5652",
"1  c #5C5B54",
"2  c #5B5B5B",
"3  c #605247",
"4  c #6C5744",
"5  c #645846",
"6  c #6C5946",
"7  c #615449",
"8  c #64594D",
"9  c #6A5C4C",
"0  c #735D49",
"q  c #605750",
"w  c #635D53",
"e  c #6B5D51",
"r  c #625F5C",
"t  c #5F605C",
"y  c #6C634C",
"u  c #75634E",
"i  c #7B634D",
"p  c #7F694E",
"a  c #646155",
"s  c #6D6253",
"d  c #6D6856",
"f  c #64645E",
"g  c #6A655C",
"h  c #67685C",
"j  c #6D685C",
"k  c #736454",
"l  c #7C6652",
"z  c #766855",
"x  c #7D6A56",
"c  c #796758",
"v  c #766A59",
"b  c #7B6D5C",
"n  c #7D715A",
"m  c #636363",
"M  c #676865",
"N  c #6B6A64",
"B  c #6B6B6B",
"V  c #736C65",
"C  c #7E6F62",
"Z  c #716F6D",
"A  c #7B7062",
"S  c #73726F",
"D  c #7B756B",
"F  c #777777",
"G  c #767676",
"H  c #747474",
"J  c #717171",
"K  c #7D7772",
"L  c #7A7774",
"P  c #7A7875",
"I  c #797877",
"U  c #7E7A77",
"Y  c gray47",
"T  c #797979",
"R  c gray48",
"E  c #7B7A7A",
"W  c #7B7B7B",
"Q  c #7C7C7C",
"!  c gray49",
"~  c #7E7E7E",
"^  c gray50",
"/  c #816951",
"(  c #826A55",
")  c #846C57",
"_  c #816A56",
"`  c #806A58",
"'  c #816C58",
"]  c #816D58",
"[  c #826C58",
"{  c #826E58",
"}  c #846C58",
"|  c #856D58",
" . c #856E58",
".. c #846E59",
"X. c #876F59",
"o. c #836F5D",
"O. c #866E59",
"+. c #84725A",
"@. c #81715F",
"#. c #86715E",
"$. c #87735F",
"%. c #81755E",
"&. c #83725A",
"*. c #88705A",
"=. c #89715A",
"-. c #88725C",
";. c #89725D",
":. c #8A725D",
">. c #8A745D",
",. c #88715A",
"<. c #8B7662",
"1. c #8D7761",
"2. c #897963",
"3. c #8A7B66",
"4. c #807870",
"5. c #817B74",
"6. c #827D77",
"7. c #857C74",
"8. c #807C78",
"9. c #837F7C",
"0. c #84807B",
"q. c #898078",
"w. c #808080",
"e. c #838383",
"r. c #848484",
/* pixels */
"  . X X X X X X . . . . . . . . . . X X . . . . . . X X . . . . . . . . . . X X X X X X X X X X X X X X X X X X X X X X X X X . ",
"o m B B B B B M M B N B B B M M m M B B B B N N N B F B B B B B B B B B B B B J J J J F H J J M B B J J J E E J F B B B J J B 2 ",
"X , 2 J F F F B J B B B B B B B B B B B J B B B B J F J B J J B B J F F F F F F ! ! w.w.! w.E F F E E E ! r.w.w.! F F E E E m , ",
". , , m m m m 2 2 2 2 2 2 2 2 2 2 t 2 2 2 2 2 2 2 2 2 2 2 2 2 2 2 2 2 2 2 2 2 m B B B B B B B B M B M m B B B B B M m B B B m , ",
". , , 2 B M m 2 2 2 2 2 2 2 2 2 2 m 2 2 2 2 2 2 2 2 2 2 2 2 2 2 2 2 2 m m m m M B B B B B B B B M m M B B J J B B M M B B B 2 , ",
". , , 2 M B 2 2 2 2 , 2 2 2 2 2 2 m 2 2 2 2 2 2 2 m m m 2 2 2 2 2 2 2 2 m M B B B B B B B B B B M 2 m B B J J B B B M B B B 2 , ",
"X , 2 B m m 2 2 2 2 2 2 2 2 2 2 2 m 2 2 2 2 2 2 2 m m m 2 2 2 2 2 2 2 2 m M M M B B B B B B M B M 2 M M B B Z J J B B B M B 2 , ",
"X , 2 m m m m 2 2 2 2 2 2 2 , 2 2 2 2 2 2 2 2 2 2 m m m 2 2 2 2 2 2 2 2 2 2 m M M B B B B B M B B m M B M B B J B B B M B B 2 , ",
". , 2 m m m 2 2 2 2 2 2 2 2 2 2 2 2 2 m 2 2 2 2 2 2 2 2 2 2 2 2 2 m m 2 2 2 m m M M M B B B M B B B M B B B B B B B B M M B 2 , ",
". , , m M m 2 2 2 2 2 2 2 , 2 2 2 2 2 2 2 2 2 2 2 2 m 2 2 2 2 2 m m m 2 m 2 2 m m m m m M M m m t M B B B J B B B B M M m B 2 % ",
". , 2 M m 2 m 2 2 2 2 2 2 2 2 2 2 m 2 2 2 2 , 2 2 2 m 2 2 2 m m 2 2 m 2 2 2 m M M m M m m m m m 2 m M B B B B B B B B m m M 2 , ",
". , , m 2 2 2 , , 2 2 2 2 2 2 2 2 2 2 2 2 2 2 2 2 2 m 2 2 2 m 2 2 2 m 2 2 2 m m m M M M M M M m m m M J B B B B m B B m 2 m 2 % ",
". , , m 2 2 2 , , 2 , 2 2 2 2 m m m m m 2 2 , , 2 2 m 2 2 m m 2 2 2 2 2 2 2 2 m M B B M m m 2 2 m M B J B B B B B B B M 2 B 2 , ",
". , , 2 2 2 2 , 2 2 2 , , , 2 2 m m 2 m m 2 , % , , 2 2 m m m 2 2 2 2 2 2 t m m B B B M m m m m m M B B B B B B B m 2 B M J t , ",
". , , m m 2 2 , 2 2 2 2 2 2 2 2 m M 2 m M 2 , , , , 2 2 m m m 2 2 2 , 2 2 2 m m B B M m m m m m m M B B B B B B B m 2 M B B 2 % ",
". , , 2 m m m 2 2 2 , 2 2 2 2 2 M m m m M 2 2 m 2 2 2 2 2 2 2 , , 2 , , 2 2 m m B B M m m m m m 2 2 M B B B B B B M m 2 2 J m , ",
". , , m m m m 2 2 2 , , 2 2 2 m m m m m m 2 m m m m m 2 2 m 2 2 2 2 , , 2 2 m m B B B M m m M M m m m B B B B B B B m m 2 B m , ",
"X 2 , m m m m 2 2 2 , , , 2 2 2 m m m m m m 2 2 m m m m m M m 2 2 2 , $ 2 2 2 2 M m m M m m B M M 2 2 M B B F J B M m m M B 2 , ",
"X 2 2 M 2 m m t 2 2 , , , 2 2 2 m m m m m 2 2 2 2 m m m M M m 2 2 2 , , , , 2 2 M m 2 M m 2 m M M 2 m M J J F F B M m 2 B B 2 , ",
". 2 2 m t m 2 t 2 2 2 2 , , 2 2 2 m m 2 2 2 2 2 2 2 2 2 m M m 2 2 2 2 2 % , 2 2 2 2 m m 2 2 m M B M m M B B J J B m 2 m B M , , ",
"X 2 , m m m m t 2 2 2 2 , , 2 2 2 m 2 2 2 m 2 2 2 2 2 2 m m m 2 2 2 2 2 , , m m 2 2 2 m 2 2 2 m B M M B B B J J B 2 2 2 2 m , $ ",
"X % , m m m m m 2 2 2 2 , 2 , 2 2 2 2 2 2 2 2 , 2 m m m m m 2 2 2 2 2 2 , , 2 m m 2 2 2 2 2 2 m M m M B B B J J B 2 2 2 m 2 , % ",
". , , m M M M m 2 , , 2 2 2 2 2 2 2 2 m m 2 2 , 2 2 2 m m m 2 2 2 2 2 2 2 2 2 m m m M 2 2 m 2 2 2 m M B B B B B m m 2 M J B 2 $ ",
". , , M M M m m 2 2 , 2 2 2 2 2 2 2 2 m m m 2 2 2 2 2 m m m 2 2 2 2 2 2 2 2 m m M M M 2 2 m M 2 2 M B M B B B B m M M B B J m , ",
"X , % m M M m m 2 2 , 2 , , 2 2 2 2 m m m 2 2 2 2 2 2 2 2 2 2 2 2 2 2 2 2 m 2 m M M M m m M m M m M B m B B B B m 2 B B B J M , ",
". , , 2 m m m 2 2 , , , , , 2 2 2 m 2 2 2 2 2 , 2 2 2 , 2 2 m m 2 2 2 2 2 2 m m M B B B m m M m m M B M B M B m 2 2 B B J J m 2 ",
". % % 2 m m M 2 2 2 , , , , , 2 2 2 2 2 2 2 , , , , 2 2 2 2 m m m 2 2 2 2 2 2 m m B B M M M m 2 2 m B B B m m M m M B m M J f 1 ",
"X , , t M B M m 2 , , 2 , 2 , 2 2 , , 2 2 2 , , 2 , 2 2 2 2 2 2 2 M 2 m 2 2 2 m m B B B B B M 2 2 m M B J B M m m 2 2 m M B 2 , ",
". , , B B M B 2 , 2 , , 2 2 2 2 , 2 2 2 2 2 , , 2 2 m m 2 2 2 2 2 2 m m 2 2 m M B B B B M M B m 2 2 M B B B M m M m M 2 B B 2 , ",
". , 2 B B m M m 2 2 , , 2 2 2 2 2 2 m 2 2 2 2 2 2 m M M 2 2 2 2 2 2 m m 2 2 M B B B M m m B B m m 2 M M B J B M M m m t B B 2 , ",
". , , m B M B m 2 2 2 2 2 , , , 2 2 2 2 , , 2 2 2 m m m 2 2 2 2 2 2 2 2 2 2 B B B B m m m M M M M M B M B B B m M 2 M M B B m , ",
". , , M B m M 2 2 2 2 2 2 2 2 , 2 , , 2 2 2 2 2 2 m 2 2 2 m m 2 2 2 2 2 2 2 m B M m m m m m m m m M B B M M B B m m B B B B M 2 ",
"X 2 2 B B m m 2 2 2 2 2 2 2 2 2 2 2 , 2 , 2 2 2 2 2 2 2 2 2 2 2 2 2 2 2 , 2 m m m m m m m M m m m M B B B M J B B J J B B B M 2 ",
"X 2 2 B M m 2 2 2 2 2 2 2 2 2 2 2 2 , , , , , , 2 2 2 2 m m m 2 2 2 2 2 , 2 2 2 m M M B M M M M M m B B M B J J B B B B B J m , ",
"X 2 , M B M 2 2 2 2 2 2 2 2 2 m 2 2 , , 2 , , 2 2 2 2 m M m m 2 2 2 2 , , 2 2 m m M B B B M M m m m m M 2 m B J B B B B M B t , ",
"X , , m M 2 2 2 , 2 2 2 2 2 2 2 2 2 2 2 2 2 2 2 m M M M m m m 2 , 2 2 2 2 2 2 m M B B B B B B M M m 2 2 2 2 M B B M m m m B 2 % ",
"X , , M m 2 m 2 2 2 2 2 2 2 2 2 , 2 2 2 2 2 2 2 m B M M m 2 2 2 2 2 2 2 2 2 2 m m M B B B B J B M m B m m 2 M B 2 2 2 M B M m , ",
"X 2 , m m m m 2 2 2 2 2 , 2 2 2 2 2 2 2 2 m 2 2 2 2 m m M 2 m 2 2 2 2 2 2 2 2 m m m M B B B J B m M M M 2 m B B m M m m m B f 2 ",
". , , M M m 2 2 2 , 2 2 , , 2 2 , , , 2 m m 2 2 2 2 2 2 m 2 2 2 2 2 2 2 2 2 m m M m M B B B B 2 2 2 B m 2 2 M B M B m 2 B B m 2 ",
". , , M M m m 2 2 2 2 2 % , , 2 2 2 2 m m m 2 2 2 2 , , m 2 2 2 2 2 2 2 m m 2 m B B B B B B m 2 m m M m M M M M M M m m M B m 2 ",
"X , , m m 2 2 2 2 , , , , , % , 2 2 2 m M 2 2 , 2 2 2 2 2 2 2 2 2 2 2 2 M m m M M M M M M m m m m m m m B B B M M B B B B B m 2 ",
"X 2 , m m 2 2 2 2 , , , , % , 2 2 m 2 m m 2 , , 2 2 2 2 m m 2 2 2 2 2 2 m m m M M m B M M m m m m m m M M B J B B B B B B B m 2 ",
"X 2 , m m 2 2 2 2 , , , , , , 2 2 m 2 m m 2 , 2 2 2 M B M m m 2 2 2 2 2 2 m m m m m M B B m M m M M M B B B J J J F B B B J M 2 ",
"X , , m m m 2 2 2 2 2 , , 2 , , 2 m 2 2 m 2 2 2 2 t M M M M m 2 2 2 m 2 2 2 2 m m m B B B m t M M M B B B B J F F J J J B J N 2 ",
". , , m m 2 2 2 2 2 , % , 2 , , , 2 , m 2 2 2 2 2 m 2 m M M m 2 2 2 2 2 2 2 2 M m m M B B B B B B m B B B B B J J B B B B B m 2 ",
". % , 2 2 2 2 m 2 2 , 2 , , 2 2 2 2 , m 2 , 2 , 2 m B M M M m 2 2 2 2 2 2 2 m m M m m B B B B B B M B m M B B B B B B B B B m 2 ",
". , , 2 m m 2 m 2 2 2 2 , , , 2 2 2 2 m m 2 2 , , 2 2 m M B M 2 2 2 2 2 2 2 m m m m M B B B B B B B B M M B B M B B B B B J m 2 ",
". 2 2 m m m 2 2 2 , 2 , , 2 2 2 2 2 2 m m 2 , , 2 2 2 2 m m m 2 m m m 2 2 2 2 m m M B B B B B B B M M m m B M B B M B B B B m 2 ",
". 2 2 M m m m 2 2 , 2 , , 2 2 2 2 M 2 2 2 2 , , 2 2 2 2 m 2 2 2 2 2 2 2 2 2 2 m m m B B B B B B B M M M m B B B B B B B B B M 2 ",
". 2 , M M m m 2 2 2 2 , , 2 2 m M B 2 2 2 2 2 2 2 2 2 2 m 2 2 2 2 2 2 2 2 2 2 m m M B B J B B B M m m M B B B B M B B J B B h , ",
"X 2 2 M M m m 2 , , , 2 , 2 2 2 2 M m m m m 2 2 2 2 2 2 m t 2 2 2 2 2 2 2 m m m M M B B B B B B m 2 m M B B B m B B B J B B 2 , ",
". , 2 B M 2 2 , , , , , , 2 2 2 2 m M m 2 2 2 2 2 2 2 2 m t 2 2 2 2 2 2 2 m m M B B B B B B B B m 2 m M B J M m B B B J B B 2 , ",
"X 2 2 M m m 2 2 , , % % % , , , 2 2 2 2 , , 2 , , , 2 2 2 2 2 2 2 , , 2 , 2 2 M B M B B M B B m M m m m M B M B B B B B B B m , ",
". , % % % % % % $ @ @ @ @ @ @ $ % % % $ $ $ % $ $ % % % % % % $ % $ $ % $ @ % , , % , , , , , , % % % % % , , , 2 , , , , , 1 , ",
"X , 2 m 2 2 2 2 , , , , , , 2 2 2 , 2 2 , , 2 2 1 2 2 2 2 2 2 2 2 2 2 , , , 2 2 m 2 2 m m m 2 m 2 2 2 2 2 m M m M M M M m 2 2 , ",
"X 2 B E U F J B B B V V B B B B J J F K H Z B B S D 4.4.P F J B Z D J M 2 B J J F 4.7.6.P F F F L 7.8.P E ! E E 9.q.0.! E J M 2 ",
"X 2 2 N A M m 2 , a l k x w 2 2 M B b ;.v f 2 2 r j A A N B M 2 2 f e l d r 2 2 M o.;.2.$.N m m f b C <.3.g B M N >.1.D B B 2 , ",
"X 2 1 l l d 2 , , % : 6 i i : , m m a l s 6 = % , 2 g g h m 2 , 2 < 4 y k i 1 2 2 < x *.| ` 1 , % ; x ( $.%.g 2 2 w x b v V 2 , ",
"X 2 , e p g d > , , $ - 6 0 u 1 m 2 2 e 9 : 5 & % 2 m h m f 2 2 , % $ - 6 i 0 1 M 2 1 b *.] c , , , ; z n @.| 2 2 , a x ) | 2 , ",
"X , % = d x / p q $ $ % q u i s f 2 , 1 8 : 8 4 * , 2 2 9 l s u < % $ $ 0 i 0 l f 2 , f ] | | c : , , < n ;.*.] r 2 2 2 ] &.2 , ",
". 2 % , 2 w r i i 7 % % , 1 s d g 2 , , , 5 u i i 8 , , , s l i 9 = % % = 6 i l x 1 , , 1 b | c z 2 , , w ( | &.x 1 , 2 w &.r , ",
"X 2 ; % , , 8 l k i : % $ , e i u u w , 2 , 9 p e k 1 2 , 1 9 9 u u ; $ % % y l | v w , , < z x l c 1 , m 1 x *.| x 2 2 2 f t 2 ",
"X , : ; $ @ @ * * * * # @ @ $ & & 3 : $ $ @ # = : ; : $ $ $ @ * * + * O o O O - 5 9 w % @ $ $ 7 7 7 : % , % < w e e 1 , , , , % ",
"  . X X X X . . . . . . . . . . . . . X . . . . . X . . . . . . . . . . . . . . . X X X . . . . . . . . X X X X X X X X X X X . "
};
